<svg width="106" height="54" viewBox="0 0 106 54" fill="none" xmlns="http://www.w3.org/2000/svg">
<path d="M2.24341 43.746C2.24341 42.2586 2.8343 40.8321 3.88609 39.7803C4.93788 38.7285 6.36441 38.1376 7.85187 38.1376H22.9947H38.1376" stroke="#526ED3" stroke-width="2" stroke-linecap="round" stroke-linejoin="round"/>
<path d="M7.85187 4.48669H38.1376V49.3545H7.85187C6.36441 49.3545 4.93788 48.7636 3.88609 47.7118C2.8343 46.66 2.24341 45.2335 2.24341 43.746V10.0952C2.24341 8.60771 2.8343 7.18117 3.88609 6.12938C4.93788 5.07759 6.36441 4.48669 7.85187 4.48669V4.48669Z" stroke="#526ED3" stroke-width="2" stroke-linecap="round" stroke-linejoin="round"/>
<path d="M63.6731 15.294L63.6471 16.308L62.2171 16.36C62.0091 17.5733 61.6711 18.5527 61.2031 19.298C60.7524 20.0433 59.9898 20.8493 58.9151 21.716C57.8404 22.5827 56.5491 23.302 55.0411 23.874C53.5504 24.4633 52.3024 24.758 51.2971 24.758C50.2918 24.758 49.5291 24.55 49.0091 24.134C48.4891 23.7353 48.2291 23.2067 48.2291 22.548C48.2291 21.5427 48.8184 20.5373 49.9971 19.532C51.1931 18.5093 52.6318 17.66 54.3131 16.984C56.0118 16.2907 57.6931 15.8227 59.3571 15.58C59.0971 15.1467 58.6984 14.7913 58.1611 14.514C57.6411 14.2367 56.7484 13.9247 55.4831 13.578C54.7898 13.3873 54.4431 13.0753 54.4431 12.642C54.4431 12.382 54.5471 12.148 54.7551 11.94C54.9804 11.7147 55.3444 11.4547 55.8471 11.16C56.3671 10.848 56.8524 10.536 57.3031 10.224C57.7711 9.89467 58.2824 9.50467 58.8371 9.054C59.4091 8.60333 59.8858 8.13533 60.2671 7.65C60.6484 7.16467 60.8391 6.74 60.8391 6.376C60.8391 5.76933 60.5358 5.466 59.9291 5.466C59.4611 5.466 58.8198 5.69133 58.0051 6.142C57.2078 6.57533 56.4191 7.13867 55.6391 7.832L54.5211 11.368C53.7411 13.8467 52.8744 15.7707 51.9211 17.14C50.9851 18.5093 50.0924 19.194 49.2431 19.194C48.3418 19.194 47.8911 18.6393 47.8911 17.53C47.8911 16.4207 48.4284 15.008 49.5031 13.292C50.5778 11.5587 52.0684 9.782 53.9751 7.962C53.9751 7.94467 54.0184 7.78867 54.1051 7.494C54.2091 7.182 54.3044 6.87 54.3911 6.558C54.6858 5.622 54.9111 5.024 55.0671 4.764L56.3411 4.972C56.3411 5.30133 56.2718 5.69133 56.1331 6.142C57.1038 5.414 58.1264 4.78133 59.2011 4.244C60.2931 3.68933 61.0904 3.412 61.5931 3.412C62.1131 3.412 62.5291 3.57667 62.8411 3.906C63.1531 4.218 63.3091 4.686 63.3091 5.31C63.3091 5.91667 63.0144 6.61867 62.4251 7.416C61.8531 8.21333 61.1338 8.93267 60.2671 9.574C58.6898 10.7527 57.3464 11.602 56.2371 12.122C58.0398 12.3993 59.3571 12.772 60.1891 13.24C61.0211 13.6907 61.6278 14.3753 62.0091 15.294H63.6731ZM51.0371 15.892C52.2504 13.9333 53.0564 11.9227 53.4551 9.86C52.5191 10.8827 51.6698 12.0527 50.9071 13.37C50.1444 14.6873 49.7631 15.6407 49.7631 16.23C49.7631 16.594 49.8844 16.776 50.1271 16.776C50.3871 16.776 50.6904 16.4813 51.0371 15.892ZM57.0691 21.456C57.9184 20.884 58.5944 20.2427 59.0971 19.532C59.5998 18.8213 59.8511 18.154 59.8511 17.53C59.8511 17.2353 59.8078 16.9407 59.7211 16.646C57.1211 16.958 54.9804 17.6427 53.2991 18.7C51.6178 19.74 50.7771 20.7367 50.7771 21.69C50.7771 22.106 50.9418 22.4353 51.2711 22.678C51.6004 22.938 52.0511 23.068 52.6231 23.068C54.0271 23.068 55.5091 22.5307 57.0691 21.456ZM72.1229 12.278C72.5735 13.0233 72.7989 13.8467 72.7989 14.748C72.7989 16.152 72.3135 17.4087 71.3429 18.518C70.3722 19.61 69.2282 20.156 67.9109 20.156C66.9055 20.156 66.1169 19.87 65.5449 19.298C64.9902 18.7087 64.7129 17.9027 64.7129 16.88C64.7129 15.2333 65.3542 13.76 66.6369 12.46C67.9195 11.1427 69.3582 10.484 70.9529 10.484C71.2475 10.484 71.4555 10.4927 71.5769 10.51L71.6549 11.368C70.2682 11.368 69.1155 11.7667 68.1969 12.564C67.2782 13.3613 66.8189 14.384 66.8189 15.632C66.8189 16.3773 67.0009 16.984 67.3649 17.452C67.7289 17.9027 68.2575 18.128 68.9509 18.128C69.6615 18.128 70.2249 17.816 70.6409 17.192C71.0569 16.568 71.2649 15.84 71.2649 15.008C71.2649 14.1587 71.1002 13.3873 70.7709 12.694L72.1229 12.278ZM80.7303 12.278C81.181 13.0233 81.4063 13.8467 81.4063 14.748C81.4063 16.152 80.921 17.4087 79.9503 18.518C78.9796 19.61 77.8356 20.156 76.5183 20.156C75.513 20.156 74.7243 19.87 74.1523 19.298C73.5976 18.7087 73.3203 17.9027 73.3203 16.88C73.3203 15.2333 73.9616 13.76 75.2443 12.46C76.527 11.1427 77.9656 10.484 79.5603 10.484C79.855 10.484 80.063 10.4927 80.1843 10.51L80.2623 11.368C78.8756 11.368 77.723 11.7667 76.8043 12.564C75.8856 13.3613 75.4263 14.384 75.4263 15.632C75.4263 16.3773 75.6083 16.984 75.9723 17.452C76.3363 17.9027 76.865 18.128 77.5583 18.128C78.269 18.128 78.8323 17.816 79.2483 17.192C79.6643 16.568 79.8723 15.84 79.8723 15.008C79.8723 14.1587 79.7076 13.3873 79.3783 12.694L80.7303 12.278ZM92.4317 17.348L93.0817 17.92C92.0764 19.5667 91.0104 20.39 89.8837 20.39C89.1904 20.39 88.4797 19.8787 87.7517 18.856C87.0237 17.8333 86.6597 16.9927 86.6597 16.334C86.6597 15.918 87.2837 15.502 88.5317 15.086C88.9997 14.93 89.4244 14.696 89.8057 14.384C90.2044 14.0547 90.4037 13.7167 90.4037 13.37C90.4037 13.0233 90.3084 12.7633 90.1177 12.59C89.9271 12.3993 89.6844 12.304 89.3897 12.304C87.4831 12.4773 85.4897 15.0427 83.4097 20L81.8237 19.454C81.8237 18.7087 82.8291 15.6927 84.8397 10.406C86.8677 5.11933 88.3064 1.92133 89.1557 0.811999L90.4297 1.28C88.0897 5.35333 86.1311 10.0853 84.5537 15.476C85.9057 13.448 87.0671 12.096 88.0377 11.42C89.0084 10.744 89.9357 10.406 90.8197 10.406C91.3571 10.406 91.7817 10.5707 92.0937 10.9C92.4231 11.2293 92.5877 11.654 92.5877 12.174C92.5877 12.6767 92.4577 13.136 92.1977 13.552C91.9551 13.968 91.5997 14.332 91.1317 14.644C90.4557 15.0947 89.6237 15.5367 88.6357 15.97C88.7917 16.7847 89.0604 17.4 89.4417 17.816C89.8231 18.232 90.2564 18.44 90.7417 18.44C91.0017 18.44 91.5651 18.076 92.4317 17.348ZM60.7871 40.294L62.6331 40.268V41.334C62.4251 41.2993 62.1824 41.282 61.9051 41.282C61.6278 41.282 61.3158 41.2993 60.9691 41.334C60.9691 42.6687 60.3278 44.0207 59.0451 45.39C57.7624 46.7593 56.2111 47.8687 54.3911 48.718C52.5884 49.5847 50.9071 50.018 49.3471 50.018C48.5324 50.018 47.8651 49.81 47.3451 49.394C46.8424 48.978 46.5911 48.432 46.5911 47.756C46.5911 46.7507 47.2584 45.702 48.5931 44.61C49.9278 43.518 51.4878 42.6167 53.2731 41.906C55.0584 41.1953 56.6704 40.7793 58.1091 40.658C57.9358 40.398 57.6671 40.1727 57.3031 39.982C56.9391 39.7913 56.1938 39.4967 55.0671 39.098C53.9404 38.682 53.1431 38.2313 52.6751 37.746C52.2071 37.2433 51.9731 36.5413 51.9731 35.64C51.9731 34.7387 52.4584 33.7073 53.4291 32.546C54.3998 31.3847 55.5438 30.414 56.8611 29.634C58.1958 28.8367 59.3658 28.438 60.3711 28.438C60.8218 28.438 61.1944 28.6027 61.4891 28.932C61.7838 29.244 61.9311 29.634 61.9311 30.102C61.9311 30.8647 61.4718 31.8267 60.5531 32.988C59.6344 34.132 58.6118 35.0073 57.4851 35.614L56.8611 34.73C57.5371 34.3833 58.1264 33.846 58.6291 33.118C59.1491 32.3727 59.4091 31.7313 59.4091 31.194C59.4091 30.6567 59.1231 30.388 58.5511 30.388C57.7364 30.388 56.8004 30.8993 55.7431 31.922C54.7031 32.9273 54.1831 33.872 54.1831 34.756C54.1831 35.3627 54.3391 35.8393 54.6511 36.186C54.9631 36.5327 55.7518 36.966 57.0171 37.486C58.2824 37.9887 59.1838 38.4393 59.7211 38.838C60.2584 39.2193 60.6138 39.7047 60.7871 40.294ZM49.1911 47.08C49.1911 47.912 49.8671 48.328 51.2191 48.328C51.9644 48.328 52.9264 48.0507 54.1051 47.496C55.3011 46.9587 56.3498 46.196 57.2511 45.208C58.1698 44.2373 58.6291 43.2407 58.6291 42.218C58.6291 42.0967 58.6031 41.9147 58.5511 41.672C56.1764 41.8973 54.0184 42.5647 52.0771 43.674C50.1531 44.7833 49.1911 45.9187 49.1911 47.08ZM69.7559 42.088L70.3279 42.738C69.8945 43.414 69.3659 43.9427 68.7419 44.324C68.1352 44.7053 67.5199 44.896 66.8959 44.896C66.2719 44.896 65.7779 44.7227 65.4139 44.376C65.0499 44.012 64.8679 43.518 64.8679 42.894C64.8679 41.438 65.4139 39.4273 66.5059 36.862C65.6219 37.0007 64.7379 37.2087 63.8539 37.486L63.6719 36.472L63.6459 36.446C64.5125 36.082 65.6479 35.7873 67.0519 35.562C67.1905 35.302 67.5025 34.6693 67.9879 33.664C68.9585 31.6707 69.6519 30.3793 70.0679 29.79L71.1859 30.232C71.0125 30.6133 70.7092 31.2547 70.2759 32.156C69.8425 33.04 69.3572 34.0453 68.8199 35.172C69.5999 35.12 70.2152 35.094 70.6659 35.094C71.1165 35.094 71.4632 35.1633 71.7059 35.302V36.42C71.4632 36.368 71.1079 36.342 70.6399 36.342C70.1892 36.342 69.3745 36.42 68.1959 36.576C67.1732 38.864 66.6619 40.528 66.6619 41.568C66.6619 41.9667 66.7832 42.296 67.0259 42.556C67.2859 42.816 67.6239 42.946 68.0399 42.946C68.4732 42.946 69.0452 42.66 69.7559 42.088ZM79.6639 37.278C80.1146 38.0233 80.3399 38.8467 80.3399 39.748C80.3399 41.152 79.8546 42.4087 78.8839 43.518C77.9132 44.61 76.7692 45.156 75.4519 45.156C74.4466 45.156 73.6579 44.87 73.0859 44.298C72.5312 43.7087 72.2539 42.9027 72.2539 41.88C72.2539 40.2333 72.8952 38.76 74.1779 37.46C75.4606 36.1427 76.8992 35.484 78.4939 35.484C78.7886 35.484 78.9966 35.4927 79.1179 35.51L79.1959 36.368C77.8092 36.368 76.6566 36.7667 75.7379 37.564C74.8192 38.3613 74.3599 39.384 74.3599 40.632C74.3599 41.3773 74.5419 41.984 74.9059 42.452C75.2699 42.9027 75.7986 43.128 76.4919 43.128C77.2026 43.128 77.7659 42.816 78.1819 42.192C78.5979 41.568 78.8059 40.84 78.8059 40.008C78.8059 39.1587 78.6412 38.3873 78.3119 37.694L79.6639 37.278ZM88.1413 35.796C88.5747 35.796 88.93 35.9433 89.2073 36.238C89.4847 36.5327 89.6233 36.914 89.6233 37.382C89.6233 38.318 89.086 39.306 88.0113 40.346L87.3873 39.852C87.63 39.3147 87.7513 38.9247 87.7513 38.682C87.7513 38.214 87.4913 37.98 86.9713 37.98C86.4513 37.98 85.9573 38.3093 85.4893 38.968C85.0213 39.6267 84.4667 40.6493 83.8253 42.036C83.2013 43.4053 82.7247 44.376 82.3953 44.948L80.9133 44.298C81.8667 42.1313 82.4127 40.8573 82.5513 40.476C83.0193 39.124 83.2533 37.408 83.2533 35.328L84.7093 34.938C84.6573 36.0647 84.5793 36.94 84.4753 37.564C84.3713 38.1707 84.12 39.1673 83.7213 40.554C85.472 37.382 86.9453 35.796 88.1413 35.796ZM97.3835 41.932L97.9815 42.4C97.4442 43.1453 96.7075 43.7693 95.7715 44.272C94.8355 44.7573 93.9255 45 93.0415 45C92.1575 45 91.4468 44.74 90.9095 44.22C90.3722 43.7 90.1035 43.0153 90.1035 42.166C90.1035 40.5713 90.9442 39.0027 92.6255 37.46C94.3242 35.9173 96.0402 35.146 97.7735 35.146C98.9175 35.146 99.4895 35.5967 99.4895 36.498C99.4895 37.434 98.8828 38.3787 97.6695 39.332C96.4735 40.2853 94.7835 41.152 92.5995 41.932C92.7555 42.3307 92.9982 42.6427 93.3275 42.868C93.6568 43.0933 93.9948 43.206 94.3415 43.206C95.0868 43.206 96.1008 42.7813 97.3835 41.932ZM92.4695 41.152C93.8735 40.6667 95.0782 40.06 96.0835 39.332C97.0888 38.604 97.5915 37.9367 97.5915 37.33C97.5915 37.1047 97.5048 36.9053 97.3315 36.732C97.1582 36.5587 96.9588 36.472 96.7335 36.472C95.9188 36.472 95.0348 36.9833 94.0815 38.006C93.1455 39.0113 92.6082 40.06 92.4695 41.152Z" fill="#526ED3"/>
</svg>
