<svg width="63" height="33" viewBox="0 0 63 33" fill="none" xmlns="http://www.w3.org/2000/svg">
<g clip-path="url(#clip0_29217_446399)">
<path d="M1.33325 27C1.33325 26.1159 1.68444 25.2681 2.30956 24.6429C2.93468 24.0178 3.78253 23.6666 4.66658 23.6666H13.6666H22.6666" stroke="#526ED3" stroke-width="2" stroke-linecap="round" stroke-linejoin="round"/>
<path d="M4.66658 3.66663H22.6666V30.3333H4.66658C3.78253 30.3333 2.93468 29.9821 2.30956 29.357C1.68444 28.7319 1.33325 27.884 1.33325 27V6.99996C1.33325 6.1159 1.68444 5.26806 2.30956 4.64294C2.93468 4.01782 3.78253 3.66663 4.66658 3.66663V3.66663Z" stroke="#526ED3" stroke-width="2" stroke-linecap="round" stroke-linejoin="round"/>
</g>
<path d="M38.829 9.923L38.812 10.586L37.877 10.62C37.741 11.4133 37.52 12.0537 37.214 12.541C36.9193 13.0283 36.4207 13.5553 35.718 14.122C35.0153 14.6887 34.171 15.159 33.185 15.533C32.2103 15.9183 31.3943 16.111 30.737 16.111C30.0797 16.111 29.581 15.975 29.241 15.703C28.901 15.4423 28.731 15.0967 28.731 14.666C28.731 14.0087 29.1163 13.3513 29.887 12.694C30.669 12.0253 31.6097 11.47 32.709 11.028C33.8197 10.5747 34.919 10.2687 36.007 10.11C35.837 9.82667 35.5763 9.59433 35.225 9.413C34.885 9.23167 34.3013 9.02767 33.474 8.801C33.0207 8.67633 32.794 8.47233 32.794 8.189C32.794 8.019 32.862 7.866 32.998 7.73C33.1453 7.58267 33.3833 7.41267 33.712 7.22C34.052 7.016 34.3693 6.812 34.664 6.608C34.97 6.39267 35.3043 6.13767 35.667 5.843C36.041 5.54833 36.3527 5.24233 36.602 4.925C36.8513 4.60767 36.976 4.33 36.976 4.092C36.976 3.69533 36.7777 3.497 36.381 3.497C36.075 3.497 35.6557 3.64433 35.123 3.939C34.6017 4.22233 34.086 4.59067 33.576 5.044L32.845 7.356C32.335 8.97667 31.7683 10.2347 31.145 11.13C30.533 12.0253 29.9493 12.473 29.394 12.473C28.8047 12.473 28.51 12.1103 28.51 11.385C28.51 10.6597 28.8613 9.736 29.564 8.614C30.2667 7.48067 31.2413 6.319 32.488 5.129C32.488 5.11767 32.5163 5.01567 32.573 4.823C32.641 4.619 32.7033 4.415 32.76 4.211C32.9527 3.599 33.1 3.208 33.202 3.038L34.035 3.174C34.035 3.38933 33.9897 3.64433 33.899 3.939C34.5337 3.463 35.2023 3.04933 35.905 2.698C36.619 2.33533 37.1403 2.154 37.469 2.154C37.809 2.154 38.081 2.26167 38.285 2.477C38.489 2.681 38.591 2.987 38.591 3.395C38.591 3.79167 38.3983 4.25067 38.013 4.772C37.639 5.29333 37.1687 5.76367 36.602 6.183C35.5707 6.95367 34.6923 7.509 33.967 7.849C35.1457 8.03033 36.007 8.274 36.551 8.58C37.095 8.87467 37.4917 9.32233 37.741 9.923H38.829ZM30.567 10.314C31.3603 9.03333 31.8873 7.71867 32.148 6.37C31.536 7.03867 30.9807 7.80367 30.482 8.665C29.9833 9.52633 29.734 10.1497 29.734 10.535C29.734 10.773 29.8133 10.892 29.972 10.892C30.142 10.892 30.3403 10.6993 30.567 10.314ZM34.511 13.952C35.0663 13.578 35.5083 13.1587 35.837 12.694C36.1657 12.2293 36.33 11.793 36.33 11.385C36.33 11.1923 36.3017 10.9997 36.245 10.807C34.545 11.011 33.1453 11.4587 32.046 12.15C30.9467 12.83 30.397 13.4817 30.397 14.105C30.397 14.377 30.5047 14.5923 30.72 14.751C30.9353 14.921 31.23 15.006 31.604 15.006C32.522 15.006 33.491 14.6547 34.511 13.952ZM44.3539 7.951C44.6485 8.43833 44.7959 8.97667 44.7959 9.566C44.7959 10.484 44.4785 11.3057 43.8439 12.031C43.2092 12.745 42.4612 13.102 41.5999 13.102C40.9425 13.102 40.4269 12.915 40.0529 12.541C39.6902 12.1557 39.5089 11.6287 39.5089 10.96C39.5089 9.88333 39.9282 8.92 40.7669 8.07C41.6055 7.20867 42.5462 6.778 43.5889 6.778C43.7815 6.778 43.9175 6.78367 43.9969 6.795L44.0479 7.356C43.1412 7.356 42.3875 7.61667 41.7869 8.138C41.1862 8.65933 40.8859 9.328 40.8859 10.144C40.8859 10.6313 41.0049 11.028 41.2429 11.334C41.4809 11.6287 41.8265 11.776 42.2799 11.776C42.7445 11.776 43.1129 11.572 43.3849 11.164C43.6569 10.756 43.7929 10.28 43.7929 9.736C43.7929 9.18067 43.6852 8.67633 43.4699 8.223L44.3539 7.951ZM49.9818 7.951C50.2765 8.43833 50.4238 8.97667 50.4238 9.566C50.4238 10.484 50.1065 11.3057 49.4718 12.031C48.8371 12.745 48.0891 13.102 47.2278 13.102C46.5705 13.102 46.0548 12.915 45.6808 12.541C45.3181 12.1557 45.1368 11.6287 45.1368 10.96C45.1368 9.88333 45.5561 8.92 46.3948 8.07C47.2335 7.20867 48.1741 6.778 49.2168 6.778C49.4095 6.778 49.5455 6.78367 49.6248 6.795L49.6758 7.356C48.7691 7.356 48.0155 7.61667 47.4148 8.138C46.8141 8.65933 46.5138 9.328 46.5138 10.144C46.5138 10.6313 46.6328 11.028 46.8708 11.334C47.1088 11.6287 47.4545 11.776 47.9078 11.776C48.3725 11.776 48.7408 11.572 49.0128 11.164C49.2848 10.756 49.4208 10.28 49.4208 9.736C49.4208 9.18067 49.3131 8.67633 49.0978 8.223L49.9818 7.951ZM57.6327 11.266L58.0577 11.64C57.4004 12.7167 56.7034 13.255 55.9667 13.255C55.5134 13.255 55.0487 12.9207 54.5727 12.252C54.0967 11.5833 53.8587 11.0337 53.8587 10.603C53.8587 10.331 54.2667 10.059 55.0827 9.787C55.3887 9.685 55.6664 9.532 55.9157 9.328C56.1764 9.11267 56.3067 8.89167 56.3067 8.665C56.3067 8.43833 56.2444 8.26833 56.1197 8.155C55.9951 8.03033 55.8364 7.968 55.6437 7.968C54.3971 8.08133 53.0937 9.75867 51.7337 13L50.6967 12.643C50.6967 12.1557 51.3541 10.1837 52.6687 6.727C53.9947 3.27033 54.9354 1.17933 55.4907 0.453999L56.3237 0.76C54.7937 3.42333 53.5131 6.51733 52.4817 10.042C53.3657 8.716 54.1251 7.832 54.7597 7.39C55.3944 6.948 56.0007 6.727 56.5787 6.727C56.9301 6.727 57.2077 6.83467 57.4117 7.05C57.6271 7.26533 57.7347 7.543 57.7347 7.883C57.7347 8.21167 57.6497 8.512 57.4797 8.784C57.3211 9.056 57.0887 9.294 56.7827 9.498C56.3407 9.79267 55.7967 10.0817 55.1507 10.365C55.2527 10.8977 55.4284 11.3 55.6777 11.572C55.9271 11.844 56.2104 11.98 56.5277 11.98C56.6977 11.98 57.0661 11.742 57.6327 11.266ZM36.942 25.923L38.149 25.906V26.603C38.013 26.5803 37.8543 26.569 37.673 26.569C37.4917 26.569 37.2877 26.5803 37.061 26.603C37.061 27.4757 36.6417 28.3597 35.803 29.255C34.9643 30.1503 33.95 30.8757 32.76 31.431C31.5813 31.9977 30.482 32.281 29.462 32.281C28.9293 32.281 28.493 32.145 28.153 31.873C27.8243 31.601 27.66 31.244 27.66 30.802C27.66 30.1447 28.0963 29.459 28.969 28.745C29.8417 28.031 30.8617 27.4417 32.029 26.977C33.1963 26.5123 34.2503 26.2403 35.191 26.161C35.0777 25.991 34.902 25.8437 34.664 25.719C34.426 25.5943 33.9387 25.4017 33.202 25.141C32.4653 24.869 31.944 24.5743 31.638 24.257C31.332 23.9283 31.179 23.4693 31.179 22.88C31.179 22.2907 31.4963 21.6163 32.131 20.857C32.7657 20.0977 33.5137 19.463 34.375 18.953C35.2477 18.4317 36.0127 18.171 36.67 18.171C36.9647 18.171 37.2083 18.2787 37.401 18.494C37.5937 18.698 37.69 18.953 37.69 19.259C37.69 19.7577 37.3897 20.3867 36.789 21.146C36.1883 21.894 35.5197 22.4663 34.783 22.863L34.375 22.285C34.817 22.0583 35.2023 21.707 35.531 21.231C35.871 20.7437 36.041 20.3243 36.041 19.973C36.041 19.6217 35.854 19.446 35.48 19.446C34.9473 19.446 34.3353 19.7803 33.644 20.449C32.964 21.1063 32.624 21.724 32.624 22.302C32.624 22.6987 32.726 23.0103 32.93 23.237C33.134 23.4637 33.6497 23.747 34.477 24.087C35.3043 24.4157 35.8937 24.7103 36.245 24.971C36.5963 25.2203 36.8287 25.5377 36.942 25.923ZM29.36 30.36C29.36 30.904 29.802 31.176 30.686 31.176C31.1733 31.176 31.8023 30.9947 32.573 30.632C33.355 30.2807 34.0407 29.782 34.63 29.136C35.2307 28.5013 35.531 27.8497 35.531 27.181C35.531 27.1017 35.514 26.9827 35.48 26.824C33.9273 26.9713 32.5163 27.4077 31.247 28.133C29.989 28.8583 29.36 29.6007 29.36 30.36ZM42.8062 27.096L43.1802 27.521C42.8969 27.963 42.5512 28.3087 42.1432 28.558C41.7465 28.8073 41.3442 28.932 40.9362 28.932C40.5282 28.932 40.2052 28.8187 39.9672 28.592C39.7292 28.354 39.6102 28.031 39.6102 27.623C39.6102 26.671 39.9672 25.3563 40.6812 23.679C40.1032 23.7697 39.5252 23.9057 38.9472 24.087L38.8282 23.424L38.8112 23.407C39.3779 23.169 40.1202 22.9763 41.0382 22.829C41.1289 22.659 41.3329 22.2453 41.6502 21.588C42.2849 20.2847 42.7382 19.4403 43.0102 19.055L43.7412 19.344C43.6279 19.5933 43.4295 20.0127 43.1462 20.602C42.8629 21.18 42.5455 21.8373 42.1942 22.574C42.7042 22.54 43.1065 22.523 43.4012 22.523C43.6959 22.523 43.9225 22.5683 44.0812 22.659V23.39C43.9225 23.356 43.6902 23.339 43.3842 23.339C43.0895 23.339 42.5569 23.39 41.7862 23.492C41.1175 24.988 40.7832 26.076 40.7832 26.756C40.7832 27.0167 40.8625 27.232 41.0212 27.402C41.1912 27.572 41.4122 27.657 41.6842 27.657C41.9675 27.657 42.3415 27.47 42.8062 27.096ZM49.2845 23.951C49.5792 24.4383 49.7265 24.9767 49.7265 25.566C49.7265 26.484 49.4092 27.3057 48.7745 28.031C48.1399 28.745 47.3919 29.102 46.5305 29.102C45.8732 29.102 45.3575 28.915 44.9835 28.541C44.6209 28.1557 44.4395 27.6287 44.4395 26.96C44.4395 25.8833 44.8589 24.92 45.6975 24.07C46.5362 23.2087 47.4769 22.778 48.5195 22.778C48.7122 22.778 48.8482 22.7837 48.9275 22.795L48.9785 23.356C48.0719 23.356 47.3182 23.6167 46.7175 24.138C46.1169 24.6593 45.8165 25.328 45.8165 26.144C45.8165 26.6313 45.9355 27.028 46.1735 27.334C46.4115 27.6287 46.7572 27.776 47.2105 27.776C47.6752 27.776 48.0435 27.572 48.3155 27.164C48.5875 26.756 48.7235 26.28 48.7235 25.736C48.7235 25.1807 48.6159 24.6763 48.4005 24.223L49.2845 23.951ZM54.8275 22.982C55.1108 22.982 55.3431 23.0783 55.5245 23.271C55.7058 23.4637 55.7965 23.713 55.7965 24.019C55.7965 24.631 55.4451 25.277 54.7425 25.957L54.3345 25.634C54.4931 25.2827 54.5725 25.0277 54.5725 24.869C54.5725 24.563 54.4025 24.41 54.0625 24.41C53.7225 24.41 53.3995 24.6253 53.0935 25.056C52.7875 25.4867 52.4248 26.1553 52.0055 27.062C51.5975 27.9573 51.2858 28.592 51.0705 28.966L50.1015 28.541C50.7248 27.1243 51.0818 26.2913 51.1725 26.042C51.4785 25.158 51.6315 24.036 51.6315 22.676L52.5835 22.421C52.5495 23.1577 52.4985 23.73 52.4305 24.138C52.3625 24.5347 52.1981 25.1863 51.9375 26.093C53.0821 24.019 54.0455 22.982 54.8275 22.982ZM60.8704 26.994L61.2614 27.3C60.9101 27.7873 60.4284 28.1953 59.8164 28.524C59.2044 28.8413 58.6094 29 58.0314 29C57.4534 29 56.9888 28.83 56.6374 28.49C56.2861 28.15 56.1104 27.7023 56.1104 27.147C56.1104 26.1043 56.6601 25.0787 57.7594 24.07C58.8701 23.0613 59.9921 22.557 61.1254 22.557C61.8734 22.557 62.2474 22.8517 62.2474 23.441C62.2474 24.053 61.8508 24.6707 61.0574 25.294C60.2754 25.9173 59.1704 26.484 57.7424 26.994C57.8444 27.2547 58.0031 27.4587 58.2184 27.606C58.4338 27.7533 58.6548 27.827 58.8814 27.827C59.3688 27.827 60.0318 27.5493 60.8704 26.994ZM57.6574 26.484C58.5754 26.1667 59.3631 25.77 60.0204 25.294C60.6778 24.818 61.0064 24.3817 61.0064 23.985C61.0064 23.8377 60.9498 23.7073 60.8364 23.594C60.7231 23.4807 60.5928 23.424 60.4454 23.424C59.9128 23.424 59.3348 23.7583 58.7114 24.427C58.0994 25.0843 57.7481 25.77 57.6574 26.484Z" fill="#526ED3"/>
<defs>
<clipPath id="clip0_29217_446399">
<rect width="24" height="30" fill="white" transform="translate(0 2)"/>
</clipPath>
</defs>
</svg>
